<svg width="20" height="21" viewBox="0 0 20 21" fill="none" xmlns="http://www.w3.org/2000/svg">
<path d="M10 0.75C8.07164 0.75 6.18657 1.32183 4.58319 2.39317C2.97982 3.46451 1.73013 4.98726 0.992179 6.76884C0.254225 8.55042 0.061142 10.5108 0.437348 12.4021C0.813554 14.2934 1.74215 16.0307 3.10571 17.3943C4.46928 18.7579 6.20656 19.6865 8.09787 20.0627C9.98919 20.4389 11.9496 20.2458 13.7312 19.5078C15.5127 18.7699 17.0355 17.5202 18.1068 15.9168C19.1782 14.3134 19.75 12.4284 19.75 10.5C19.7473 7.91498 18.7192 5.43661 16.8913 3.60872C15.0634 1.78084 12.585 0.75273 10 0.75ZM4.945 17.0156C5.48757 16.1671 6.23501 15.4688 7.11843 14.9851C8.00185 14.5013 8.99283 14.2478 10 14.2478C11.0072 14.2478 11.9982 14.5013 12.8816 14.9851C13.765 15.4688 14.5124 16.1671 15.055 17.0156C13.6097 18.1397 11.831 18.7499 10 18.7499C8.16905 18.7499 6.39032 18.1397 4.945 17.0156ZM7 9.75C7 9.15666 7.17595 8.57664 7.5056 8.08329C7.83524 7.58994 8.30378 7.20542 8.85195 6.97836C9.40013 6.7513 10.0033 6.69189 10.5853 6.80764C11.1672 6.9234 11.7018 7.20912 12.1213 7.62868C12.5409 8.04824 12.8266 8.58279 12.9424 9.16473C13.0581 9.74667 12.9987 10.3499 12.7716 10.8981C12.5446 11.4462 12.1601 11.9148 11.6667 12.2444C11.1734 12.5741 10.5933 12.75 10 12.75C9.20436 12.75 8.44129 12.4339 7.87868 11.8713C7.31607 11.3087 7 10.5456 7 9.75ZM16.165 15.9759C15.3285 14.7638 14.1524 13.8261 12.7844 13.2806C13.5192 12.7019 14.0554 11.9085 14.3184 11.0108C14.5815 10.1132 14.5582 9.1559 14.252 8.27207C13.9457 7.38825 13.3716 6.62183 12.6096 6.0794C11.8475 5.53696 10.9354 5.24548 10 5.24548C9.06462 5.24548 8.15248 5.53696 7.39044 6.0794C6.62839 6.62183 6.05432 7.38825 5.74805 8.27207C5.44179 9.1559 5.41855 10.1132 5.68157 11.0108C5.94459 11.9085 6.4808 12.7019 7.21563 13.2806C5.84765 13.8261 4.67147 14.7638 3.835 15.9759C2.77804 14.7873 2.0872 13.3185 1.84567 11.7464C1.60415 10.1743 1.82224 8.56584 2.47368 7.11478C3.12512 5.66372 4.18213 4.43192 5.51745 3.56769C6.85276 2.70346 8.40943 2.24367 10 2.24367C11.5906 2.24367 13.1473 2.70346 14.4826 3.56769C15.8179 4.43192 16.8749 5.66372 17.5263 7.11478C18.1778 8.56584 18.3959 10.1743 18.1543 11.7464C17.9128 13.3185 17.222 14.7873 16.165 15.9759Z" fill="#1A1A1A"/>
</svg>
