<svg width="21" height="21" viewBox="0 0 21 21" fill="none" xmlns="http://www.w3.org/2000/svg">
<path d="M19.8103 10.25L10.5 0.939695C10.3612 0.799801 10.196 0.688889 10.014 0.613407C9.83197 0.537925 9.63675 0.499378 9.4397 0.500008H0.750008C0.551095 0.500008 0.36033 0.579025 0.219678 0.719678C0.0790254 0.86033 7.58902e-06 1.0511 7.58902e-06 1.25001V9.9397C-0.000621974 10.1368 0.0379245 10.332 0.113407 10.514C0.188889 10.696 0.299801 10.8612 0.439695 11L9.75001 20.3103C9.8893 20.4496 10.0547 20.5602 10.2367 20.6356C10.4187 20.711 10.6138 20.7498 10.8108 20.7498C11.0078 20.7498 11.2029 20.711 11.3849 20.6356C11.5669 20.5602 11.7323 20.4496 11.8716 20.3103L19.8103 12.3716C19.9496 12.2323 20.0602 12.0669 20.1356 11.8849C20.211 11.7029 20.2498 11.5078 20.2498 11.3108C20.2498 11.1138 20.211 10.9187 20.1356 10.7367C20.0602 10.5547 19.9496 10.3893 19.8103 10.25ZM10.8103 19.25L1.50001 9.9397V2.00001H9.4397L18.75 11.3103L10.8103 19.25ZM6.00001 5.37501C6.00001 5.59751 5.93403 5.81502 5.81041 6.00002C5.68679 6.18503 5.51109 6.32922 5.30553 6.41437C5.09996 6.49952 4.87376 6.5218 4.65553 6.47839C4.4373 6.43498 4.23685 6.32784 4.07951 6.1705C3.92218 6.01317 3.81503 5.81271 3.77162 5.59448C3.72822 5.37626 3.75049 5.15006 3.83564 4.94449C3.92079 4.73892 4.06499 4.56322 4.24999 4.4396C4.435 4.31599 4.6525 4.25001 4.87501 4.25001C5.17338 4.25001 5.45952 4.36853 5.6705 4.57951C5.88148 4.79049 6.00001 5.07664 6.00001 5.37501Z" fill="#1A1A1A"/>
</svg>
