<svg width="52" height="56" viewBox="0 0 52 56" fill="none" xmlns="http://www.w3.org/2000/svg">
<path d="M49.92 12.538L27.92 0.500533C27.3322 0.175739 26.6716 0.00537109 26 0.00537109C25.3284 0.00537109 24.6678 0.175739 24.08 0.500533L2.08 12.543C1.45172 12.8868 0.927258 13.3929 0.561379 14.0086C0.1955 14.6243 0.00162564 15.3269 0 16.043V39.953C0.00162564 40.6692 0.1955 41.3718 0.561379 41.9875C0.927258 42.6031 1.45172 43.1093 2.08 43.453L24.08 55.4955C24.6678 55.8203 25.3284 55.9907 26 55.9907C26.6716 55.9907 27.3322 55.8203 27.92 55.4955L49.92 43.453C50.5483 43.1093 51.0727 42.6031 51.4386 41.9875C51.8045 41.3718 51.9984 40.6692 52 39.953V16.0455C51.9997 15.3281 51.8065 14.6239 51.4405 14.0068C51.0746 13.3897 50.5494 12.8824 49.92 12.538ZM26 4.00053L46.085 15.0005L38.6425 19.0755L18.555 8.07553L26 4.00053ZM26 26.0005L5.915 15.0005L14.39 10.3605L34.475 21.3605L26 26.0005ZM4 18.5005L24 29.4455V50.893L4 39.9555V18.5005ZM48 39.9455L28 50.893V29.4555L36 25.078V34.0005C36 34.531 36.2107 35.0397 36.5858 35.4148C36.9609 35.7898 37.4696 36.0005 38 36.0005C38.5304 36.0005 39.0391 35.7898 39.4142 35.4148C39.7893 35.0397 40 34.531 40 34.0005V22.888L48 18.5005V39.943V39.9455Z" fill="#B3B3B3"/>
</svg>
