<svg width="19" height="17" viewBox="0 0 19 17" fill="none" xmlns="http://www.w3.org/2000/svg">
<path d="M17.25 3.25H2.25C2.05109 3.25 1.86032 3.17098 1.71967 3.03033C1.57902 2.88968 1.5 2.69891 1.5 2.5C1.5 2.30109 1.57902 2.11032 1.71967 1.96967C1.86032 1.82902 2.05109 1.75 2.25 1.75H15C15.1989 1.75 15.3897 1.67098 15.5303 1.53033C15.671 1.38968 15.75 1.19891 15.75 1C15.75 0.801088 15.671 0.610322 15.5303 0.46967C15.3897 0.329018 15.1989 0.25 15 0.25H2.25C1.65326 0.25 1.08097 0.487053 0.65901 0.90901C0.237053 1.33097 0 1.90326 0 2.5V14.5C0 15.0967 0.237053 15.669 0.65901 16.091C1.08097 16.5129 1.65326 16.75 2.25 16.75H17.25C17.6478 16.75 18.0294 16.592 18.3107 16.3107C18.592 16.0294 18.75 15.6478 18.75 15.25V4.75C18.75 4.35218 18.592 3.97064 18.3107 3.68934C18.0294 3.40804 17.6478 3.25 17.25 3.25ZM17.25 15.25H2.25C2.05109 15.25 1.86032 15.171 1.71967 15.0303C1.57902 14.8897 1.5 14.6989 1.5 14.5V4.62156C1.74082 4.70693 1.9945 4.75037 2.25 4.75H17.25V15.25ZM12.75 9.625C12.75 9.4025 12.816 9.18499 12.9396 8.99998C13.0632 8.81498 13.2389 8.67078 13.4445 8.58564C13.65 8.50049 13.8762 8.47821 14.0945 8.52162C14.3127 8.56502 14.5132 8.67217 14.6705 8.82951C14.8278 8.98684 14.935 9.18729 14.9784 9.40552C15.0218 9.62375 14.9995 9.84995 14.9144 10.0555C14.8292 10.2611 14.685 10.4368 14.5 10.5604C14.315 10.684 14.0975 10.75 13.875 10.75C13.5766 10.75 13.2905 10.6315 13.0795 10.4205C12.8685 10.2095 12.75 9.92337 12.75 9.625Z" fill="#1A1A1A"/>
</svg>
